<svg width="18" height="15" viewBox="0 0 18 15" fill="none" xmlns="http://www.w3.org/2000/svg">
<path fill-rule="evenodd" clip-rule="evenodd" d="M16.6786 0.0521949C16.577 0.0861009 16.1846 0.234009 16.0727 0.280674C16.04 0.294289 15.8422 0.371533 15.6331 0.452366C15.424 0.533198 15.2315 0.608043 15.2054 0.618688C15.1793 0.629333 14.9868 0.704177 14.7777 0.78501C14.5686 0.865843 14.3762 0.940687 14.35 0.951332C14.3239 0.962 14.1047 1.04754 13.863 1.14141C13.6212 1.23529 13.402 1.32083 13.3759 1.3315C13.3497 1.34214 13.1573 1.41699 12.9482 1.49782C12.7391 1.57865 12.5466 1.65304 12.5205 1.66317C12.4944 1.67326 12.4462 1.69268 12.4136 1.70629C12.3809 1.71991 12.1831 1.79715 11.974 1.87798C11.7649 1.95882 11.5725 2.03366 11.5463 2.04431C11.5202 2.05495 11.3277 2.1298 11.1186 2.21063C10.9095 2.29146 10.7171 2.36631 10.691 2.37695C10.6648 2.38762 10.4456 2.47316 10.2039 2.56703C9.96211 2.66091 9.74292 2.74645 9.71678 2.75711C9.69065 2.76776 9.49819 2.8426 9.2891 2.92344C9.08001 3.00427 8.8822 3.08151 8.84953 3.09513C8.81686 3.10874 8.76875 3.12815 8.74261 3.13825C8.71647 3.14837 8.52401 3.22277 8.31492 3.3036C8.10583 3.38443 7.91337 3.45928 7.88724 3.46992C7.8611 3.48057 7.66864 3.55541 7.45955 3.63625C7.25046 3.71708 7.058 3.79192 7.03187 3.80257C7.00573 3.81324 6.78654 3.89877 6.54478 3.99265C6.30302 4.08653 6.08383 4.17206 6.05769 4.18273C6.03156 4.19338 5.8391 4.26822 5.63001 4.34905C5.42092 4.42989 5.2258 4.50571 5.19638 4.51756C5.16697 4.52944 5.11888 4.54883 5.08946 4.56071C5.06005 4.57257 4.86493 4.64839 4.65584 4.72922C4.44675 4.81005 4.25429 4.8849 4.22815 4.89554C4.20202 4.90619 4.00956 4.98103 3.80047 5.06186C3.59138 5.14269 3.39892 5.21754 3.37278 5.22818C3.34664 5.23885 3.12746 5.32439 2.88569 5.41827C2.64393 5.51214 2.42475 5.59768 2.39861 5.60835C2.37247 5.61902 2.15328 5.70455 1.91152 5.79843C1.66976 5.89231 1.45057 5.97785 1.42444 5.98851C1.3983 5.99916 1.20584 6.074 0.996751 6.15484C0.78766 6.23567 0.595202 6.31042 0.569065 6.32094C0.542929 6.33149 0.484122 6.35383 0.438384 6.37056C-0.191217 6.60101 -0.124236 7.58045 0.521141 7.58045C0.539721 7.58045 0.57952 7.59017 0.609529 7.60203C0.639539 7.61388 0.744298 7.64675 0.842309 7.67502C0.94032 7.70329 1.09001 7.74713 1.17495 7.77244C1.2599 7.79774 1.36682 7.82896 1.41256 7.84182C1.5209 7.87225 1.81185 7.95898 1.88776 7.98348C1.92043 7.994 1.98993 8.01446 2.0422 8.02895C2.1529 8.0596 2.44321 8.14578 2.52929 8.17356C2.56196 8.18408 2.63146 8.20454 2.68373 8.21904C2.73601 8.23351 2.85093 8.26682 2.93916 8.29307C3.02738 8.3193 3.1717 8.36226 3.25992 8.38849C3.34814 8.41475 3.46307 8.44806 3.51534 8.46253C3.56762 8.47702 3.63711 8.49758 3.66978 8.50825C3.70246 8.51889 3.80938 8.55085 3.90739 8.57924C4.0054 8.60761 4.11232 8.63933 4.14499 8.64969C4.17766 8.66007 4.26854 8.68716 4.34695 8.7099C4.53338 8.76398 4.53373 8.76433 4.59527 8.9647C4.62433 9.05934 4.66705 9.19556 4.69024 9.26743C4.71341 9.33931 4.76751 9.51038 4.81047 9.6476C4.85343 9.78481 4.91749 9.98797 4.95284 10.099C4.9882 10.2101 5.05225 10.4133 5.09521 10.5505C5.13817 10.6877 5.1922 10.8588 5.21532 10.9307C5.23842 11.0025 5.30207 11.2057 5.35677 11.3821C5.41146 11.5585 5.47562 11.7617 5.49933 11.8335C5.52304 11.9054 5.58719 12.1086 5.64189 12.285C5.69659 12.4614 5.76067 12.6646 5.78431 12.7364C5.80795 12.8083 5.86172 12.9794 5.90385 13.1166C6.08823 13.7174 6.12774 13.8094 6.25975 13.9455C6.45295 14.1445 6.80315 14.2068 7.05784 14.0874C7.17096 14.0343 7.73166 13.4826 9.01633 12.1602C9.44263 11.7214 9.37437 11.7411 9.68299 11.9684C9.94067 12.1582 10.1508 12.3126 10.4534 12.5345C10.8613 12.8336 10.9901 12.9283 11.2639 13.1301C11.4222 13.2468 11.7199 13.4653 11.9254 13.6156C12.131 13.7659 12.4505 14.0002 12.6355 14.1365C12.8206 14.2727 13.0521 14.443 13.1501 14.515C13.2482 14.587 13.3873 14.69 13.4593 14.744C14.1412 15.2548 14.8608 14.975 15.0166 14.1383C15.0251 14.0926 15.0417 14.0124 15.0535 13.9601C15.0652 13.9078 15.0854 13.8116 15.0982 13.7463C15.1111 13.6809 15.1433 13.5259 15.1698 13.4017C15.1963 13.2776 15.2284 13.1225 15.2413 13.0572C15.2542 12.9919 15.2754 12.8903 15.2886 12.8315C15.3017 12.7727 15.3231 12.6711 15.3361 12.6058C15.3491 12.5404 15.3705 12.4388 15.3836 12.38C15.3968 12.3212 15.418 12.2197 15.4309 12.1543C15.4438 12.089 15.4747 11.9393 15.4997 11.8217C15.5979 11.3596 15.6513 11.1048 15.6689 11.0138C15.679 10.9615 15.7003 10.86 15.7163 10.7881C15.7322 10.7162 15.7535 10.6146 15.7636 10.5624C15.7812 10.4714 15.8346 10.2165 15.9328 9.75452C15.9578 9.63691 15.9888 9.48722 16.0016 9.42188C16.0145 9.35653 16.0358 9.25496 16.0489 9.19615C16.062 9.13735 16.0834 9.03577 16.0964 8.97043C16.1094 8.90509 16.1309 8.80351 16.144 8.74471C16.1572 8.6859 16.1774 8.58967 16.1889 8.53087C16.2094 8.42618 16.2697 8.13834 16.3605 7.71113C16.3855 7.59352 16.4165 7.44383 16.4293 7.37849C16.4422 7.31315 16.4634 7.21158 16.4766 7.15277C16.4897 7.09396 16.511 6.99239 16.5238 6.92705C16.5367 6.8617 16.5677 6.71201 16.5927 6.5944C16.6909 6.13238 16.7443 5.87751 16.7619 5.78655C16.772 5.73428 16.7933 5.6327 16.8092 5.56083C16.8252 5.48895 16.8465 5.38738 16.8566 5.33511C16.8742 5.24415 16.9276 4.98927 17.0258 4.52726C17.0508 4.40964 17.0817 4.25995 17.0946 4.19461C17.1075 4.12927 17.1287 4.0277 17.1419 3.96889C17.155 3.91008 17.1764 3.80851 17.1894 3.74317C17.2024 3.67783 17.2238 3.57625 17.237 3.51744C17.2502 3.45864 17.2704 3.36241 17.2819 3.3036C17.3024 3.19891 17.3627 2.91108 17.4534 2.48387C17.4785 2.36626 17.5094 2.21657 17.5223 2.15123C17.5352 2.08589 17.5564 1.98431 17.5696 1.9255C17.5827 1.8667 17.604 1.76512 17.6168 1.69978C17.6297 1.63444 17.6629 1.4794 17.6906 1.35526C17.8947 0.439939 17.4053 -0.190184 16.6786 0.0521949ZM14.5721 2.72972C14.7364 2.85617 14.6873 2.92372 13.9818 3.54192C13.7661 3.73081 13.5844 3.89096 13.5778 3.89777C13.5713 3.90457 13.4751 3.99018 13.364 4.08802C13.2529 4.18584 13.1567 4.27155 13.1501 4.27844C13.1436 4.28533 12.9618 4.44564 12.7462 4.63468C12.5306 4.82369 12.3488 4.98393 12.3423 4.99075C12.3358 4.99754 12.2395 5.08315 12.1285 5.181C12.0174 5.27882 11.9211 5.36452 11.9146 5.37141C11.9081 5.3783 11.7263 5.53861 11.5107 5.72765C11.2951 5.91666 11.1133 6.0769 11.1068 6.08372C11.1002 6.09052 11.004 6.17613 10.8929 6.27397C10.7818 6.37179 10.6856 6.45749 10.6791 6.46439C10.6725 6.47128 10.4908 6.63159 10.2751 6.82062C10.0595 7.00964 9.87776 7.16988 9.87122 7.17669C9.86469 7.18349 9.76846 7.2691 9.65738 7.36694C9.5463 7.46477 9.45007 7.55047 9.44354 7.55736C9.437 7.56425 9.25524 7.72456 9.03961 7.9136C8.82399 8.10261 8.64222 8.26285 8.63569 8.26967C8.62915 8.27646 8.53292 8.36207 8.42185 8.45992C8.31077 8.55774 8.21454 8.64344 8.208 8.65033C8.20147 8.65722 8.0197 8.81753 7.80408 9.00657C7.58845 9.19558 7.40669 9.35573 7.40015 9.36243C7.39362 9.3691 7.2957 9.45783 7.18253 9.55957C6.96149 9.75832 6.87743 9.89162 6.87743 10.0434C6.87743 10.0915 6.86747 10.1958 6.8553 10.2753C6.84312 10.3548 6.82114 10.5321 6.80643 10.6693C6.79175 10.8065 6.77022 10.999 6.75862 11.097C6.74703 11.195 6.72564 11.3874 6.7111 11.5247C6.63483 12.2446 6.58831 12.5676 6.55721 12.5934C6.50862 12.6337 6.46117 12.568 6.40312 12.38C6.37288 12.282 6.32954 12.143 6.30682 12.0711C6.26315 11.9329 6.15302 11.5765 6.06827 11.2989C6.04033 11.2075 5.9986 11.0738 5.97553 11.0019C5.95248 10.9301 5.90926 10.7911 5.87949 10.6931C5.84972 10.595 5.80636 10.456 5.78314 10.3842C5.75991 10.3123 5.70704 10.1412 5.66565 10.004C5.62426 9.86679 5.57139 9.69571 5.54816 9.62384C5.52494 9.55196 5.4831 9.41831 5.45518 9.32683C5.42729 9.23536 5.37233 9.0602 5.33308 8.93759C5.16431 8.41031 5.16279 8.41233 6.18838 7.77816C6.69989 7.46187 6.83884 7.37571 7.04375 7.24781C7.14176 7.18663 7.29679 7.09049 7.38827 7.03418C7.47975 6.97785 7.62664 6.88525 7.71469 6.82842C7.80275 6.77158 7.8804 6.72508 7.88724 6.72508C7.89408 6.72508 7.97173 6.67863 8.05979 6.62184C8.23119 6.51134 8.50422 6.34012 8.75449 6.18625C9.05385 6.0022 9.24343 5.88473 9.41978 5.77405C9.51779 5.71254 9.75836 5.56309 9.95438 5.44196C10.5026 5.10313 10.6058 5.0392 10.7979 4.9193C10.8959 4.85812 11.0509 4.76198 11.1424 4.70567C11.2339 4.64934 11.3808 4.55674 11.4688 4.49991C11.5569 4.44307 11.6345 4.39657 11.6414 4.39657C11.6482 4.39657 11.7259 4.35012 11.8139 4.29334C11.9853 4.18283 12.2583 4.01161 12.5086 3.85774C12.808 3.67369 12.9976 3.55622 13.1739 3.44554C13.2719 3.38403 13.5125 3.23448 13.7085 3.11319C13.9045 2.99189 14.139 2.84612 14.2295 2.78924C14.4082 2.67699 14.4859 2.66348 14.5721 2.72972Z" fill="white"/>
</svg>
