<svg width="14" height="15" viewBox="0 0 14 15" fill="none" xmlns="http://www.w3.org/2000/svg">
<path fill-rule="evenodd" clip-rule="evenodd" d="M6.93749 0.0192701C6.922 0.0347598 6.90931 2.47887 6.90931 5.45066V10.8539L6.80419 11.1332C6.1877 12.771 4.13757 13.1247 3.07113 11.7772C1.82026 10.1967 3.28712 7.8856 5.25357 8.33889C5.51004 8.398 5.50355 8.43299 5.50429 6.98579C5.50504 5.48523 5.57394 5.63939 4.89218 5.61671C-0.87263 5.42476 -1.74922 13.5825 3.89399 14.9064C5.95626 15.3901 8.44209 13.944 9.15251 11.8471C9.4065 11.0974 9.40084 11.18 9.41786 7.9747C9.43017 5.65847 9.4445 5.03165 9.48507 5.03165C9.5134 5.03165 9.60997 5.08498 9.69965 5.1502C10.3997 5.65921 11.6568 6.08388 12.7211 6.17083C13.1435 6.20536 13.1109 6.3187 13.0961 4.8666L13.0845 3.73085L12.8987 3.69764C10.7772 3.31845 9.59552 2.20869 9.37106 0.384744L9.32529 0.0129916L8.14548 0.00204558C7.49656 -0.00398507 6.95297 0.00378042 6.93749 0.0192701Z" fill="white"/>
</svg>
