<svg width="28" height="15" viewBox="0 0 28 15" fill="none" xmlns="http://www.w3.org/2000/svg">
<path fill-rule="evenodd" clip-rule="evenodd" d="M11.4245 0.0236713C10.4289 0.112474 9.85887 0.342052 9.5772 0.767711C9.44439 0.968341 9.46659 1.01521 9.72358 1.07691C10.572 1.2806 10.8831 1.66704 11.0548 2.73016C11.1225 3.14919 11.1245 5.59665 11.0574 5.98575C10.8787 7.02358 10.6947 7.33784 10.2695 7.33141C9.74402 7.32348 8.92463 6.3734 7.87433 4.55408C7.83695 4.48936 7.71602 4.28084 7.60561 4.09076C7.42816 3.78525 6.81015 2.55197 6.64862 2.18103C6.61575 2.10552 6.5428 1.94172 6.48655 1.81703C6.4303 1.69238 6.38425 1.58094 6.38425 1.56941C6.38425 1.32928 6.01096 0.886991 5.68689 0.743196L5.47987 0.651294L3.49035 0.652706C0.915062 0.65451 0.740555 0.690792 0.73726 1.22506C0.735887 1.44413 0.749105 1.48214 1.08984 2.23986C1.50989 3.17402 2.30277 4.76291 2.82692 5.72099C2.90658 5.86663 3.03692 6.10487 3.11654 6.25051C3.19617 6.39611 3.34848 6.66531 3.45497 6.84868C3.5615 7.03205 3.68357 7.24386 3.72624 7.31937C3.76892 7.39487 3.81771 7.4743 3.8347 7.49587C3.85168 7.51745 3.90055 7.59688 3.94331 7.67238C4.18226 8.09427 5.14693 9.57106 5.40377 9.90815C5.46131 9.98365 5.63343 10.2131 5.78628 10.4181C7.43573 12.6297 9.34994 14.0647 11.3853 14.6156C11.8312 14.7363 11.9651 14.768 12.209 14.8105C12.36 14.8368 12.5683 14.8743 12.6718 14.8936C12.9675 14.9489 15.3133 14.9384 15.4814 14.881C15.8839 14.7436 16.1118 14.448 16.1118 14.0632C16.1118 13.0704 16.3831 12.0884 16.7562 11.7309C17.3166 11.1939 17.8465 11.4907 19.2459 13.1253C20.211 14.2524 20.8637 14.7291 21.7694 14.9682C22.0961 15.0544 26.0386 14.9493 26.3534 14.8459C27.7951 14.3727 27.1208 13.0653 23.8502 9.99299C22.6061 8.82431 22.521 8.51774 23.1648 7.52349C23.2808 7.34451 23.485 7.05327 23.6188 6.87629C23.866 6.54932 24.4293 5.81838 24.5168 5.71118C24.5579 5.66082 25.0261 5.03571 25.2513 4.73059C26.6226 2.87255 27.2798 1.51563 27.0364 1.04506C26.8297 0.645136 26.7576 0.636467 23.8977 0.667219C20.9326 0.699108 21.0623 0.669925 20.7834 1.36713C20.7639 1.41569 20.711 1.53905 20.6657 1.64127C20.6204 1.74352 20.5833 1.83566 20.5833 1.84602C20.5833 1.85641 20.5412 1.95812 20.4897 2.07199C20.4382 2.18589 20.3573 2.36734 20.31 2.47521C20.1433 2.85509 19.701 3.73418 19.5107 4.06378C19.4048 4.24715 19.286 4.45335 19.2468 4.52203C19.1753 4.64727 19.0681 4.81715 18.6694 5.43662C17.3512 7.48485 16.4417 7.8441 16.1522 6.43094C16.1029 6.19042 16.116 3.6371 16.1744 2.10258C16.2103 1.16019 16.1037 0.710483 15.776 0.42203C15.5911 0.25929 15.3932 0.184725 14.8174 0.0608947C14.5585 0.00523592 11.9521 -0.0233582 11.4245 0.0236713Z" fill="white"/>
</svg>
